<svg width="1517" height="1517" viewBox="0 0 1517 1517" fill="none" xmlns="http://www.w3.org/2000/svg">
<path d="M762.596 774.398C741.245 774.11 723.943 791.191 723.943 812.55V870.15L801.256 871.205V813.605C801.256 792.238 783.948 774.686 762.604 774.391L762.596 774.398ZM772.494 850.634L751.674 850.346V822.38L772.494 822.669V850.634ZM772.494 811.117L751.674 810.829V807.4C751.674 801.651 756.331 797.047 762.08 797.123C767.83 797.199 772.487 801.931 772.487 807.681V811.109L772.494 811.117Z" fill="#1E1E47"/>
<path d="M596.145 447.237C608.781 442.216 632.674 436.33 632.674 433.038C632.674 429.747 621.418 426.462 597.874 429.405C574.331 432.348 548.883 453.298 545.766 451.394C542.648 449.49 528.108 421.1 503.176 411.406C478.245 401.713 442.065 406.385 441.89 408.979C441.716 411.573 462.316 424.907 475.818 427.501C489.319 430.096 497.973 445.849 503.169 453.821C508.365 461.785 522.556 472.685 522.04 472.685C521.524 472.685 510.268 480.475 507.849 480.475C505.429 480.475 490.54 481.688 490.54 484.972C490.54 488.257 506.81 498.132 510.792 498.299C514.774 498.474 520.136 503.146 523.079 503.032C526.022 502.918 541.253 490.335 541.253 490.335C552.676 492.064 564.971 487.392 570.166 488.105C575.362 488.818 586.959 485.314 586.785 484.798C586.611 484.282 584.532 474.93 580.55 471.471C576.568 468.005 575.013 463.333 575.013 463.333C575.013 463.333 583.493 452.251 596.13 447.23L596.145 447.237Z" fill="#1E1E47"/>
<path d="M236.27 464.926L258.927 448.459L281.59 464.926L272.936 438.287L295.592 421.82H267.581L258.927 395.182L250.272 421.82H222.261L244.925 438.287L236.27 464.926Z" fill="#1E1E47"/>
<path d="M1242.25 464.926L1264.92 448.459L1287.57 464.926L1278.92 438.287L1301.58 421.82H1273.57L1264.92 395.182L1256.26 421.82H1228.25L1250.91 438.287L1242.25 464.926Z" fill="#1E1E47"/>
<path d="M472.177 770.553C472.177 769.18 470.386 768.391 468.869 767.852C467.353 767.314 466.465 765.986 466.002 765.675C450.916 755.504 422.017 731.308 412.104 716.434C411.96 716.624 411.876 716.745 411.876 716.745C411.876 716.745 399.725 721.926 394.143 729.897C388.568 737.869 381.195 743.186 381.795 755.663C382.394 768.148 405.899 785.078 417.853 791.457C427.919 796.827 441.905 797.669 446.084 797.805C454.739 789.12 460.412 781.968 464.918 777.584C464.652 777.538 465.479 776.969 466.753 776.143C469.021 774.671 472.177 772.312 472.177 770.56V770.553Z" fill="#1E1E47"/>
<path d="M445.895 797.987L445.546 798.025C445.546 798.025 445.599 798.086 445.69 798.192C445.758 798.124 445.827 798.056 445.895 797.987Z" fill="#1E1E47"/>
<path d="M474.065 756.52C466.981 741.912 452.175 714.409 447.147 700.771C446.752 701.059 446.274 701.196 445.546 701.196C441.958 701.196 430.801 697.411 424.028 703.388C418.4 708.349 413.788 714.219 412.37 716.085C425.742 728.767 453.647 751.514 468.096 765.888C469.613 763.87 470.971 758.576 474.058 756.513L474.065 756.52Z" fill="#1E1E47"/>
<path d="M475.658 755.8C480.611 754.639 485.67 761.071 488.09 761.177C489.508 761.238 492.368 761.655 494.226 761.997C508.759 744.915 518.665 730.178 527.107 719.149C526.128 716.017 518.741 693.406 509.092 693.034C498.731 692.632 481.825 692.632 479.42 689.052C477.016 685.465 467.451 680.087 457.09 689.052C449.574 695.56 448.77 699.011 447.518 700.422C456.028 715.334 465.919 731.611 474.589 756.277C474.93 756.103 475.256 755.891 475.635 755.8H475.658Z" fill="#1E1E47"/>
<path d="M561.899 761.17C564.485 748.223 559.107 729.495 551.538 722.722C545.083 716.95 532.014 718.694 528.282 719.339C521.797 732.681 505.209 751.947 494.666 762.073C495.743 762.277 489.356 767.496 489.356 767.496C489.356 767.496 492.413 775.824 494.309 775.923C495.728 775.999 503.828 776.841 507.848 777.265C514.554 776.165 542.254 774.8 548.883 774.391C550.696 774.224 551.879 774.155 552.577 774.171C557.484 769.862 561.034 765.478 561.899 761.162V761.17Z" fill="#1E1E47"/>
<path d="M509.062 777.697C507.613 777.948 504.678 778.388 500.423 778.714C499.308 778.797 498.223 778.911 497.139 779.025C501.644 785.184 506.37 793.838 510.845 801.635C512.703 800.536 514.637 799.337 516.677 798.025C527.046 791.365 541.662 783.394 551.5 775.111C546.994 776.408 535.587 778.592 532.272 778.668C527.971 778.903 514.508 779.267 509.07 777.705L509.062 777.697Z" fill="#1E1E47"/>
<path d="M1155.03 970.574C1153.04 968.504 1150.76 967.085 1148.35 965.894C1145.94 964.711 1143.35 963.786 1140.65 962.989C1137.1 961.95 1133.35 961.207 1129.62 960.57C1129.93 960.486 1130.22 960.395 1130.53 960.319C1142.24 957.293 1155.51 955.981 1166.12 955.989C1169.62 955.989 1172.83 956.125 1175.57 956.375C1178.3 956.626 1180.59 956.99 1182.1 957.377C1183.1 957.619 1183.76 957.9 1183.82 957.938C1186.74 960.213 1190.96 959.963 1193.54 957.202C1196.28 954.282 1196.13 949.701 1193.21 946.962C1192.24 946.052 1191.3 945.483 1190.39 945.021C1189.48 944.558 1188.59 944.209 1187.66 943.906C1185.82 943.306 1183.85 942.874 1181.65 942.525C1177.27 941.843 1172.02 941.501 1166.12 941.494C1159.07 941.494 1151.14 942.025 1143.07 943.155L1158.55 931.186C1161.71 928.736 1162.3 924.185 1159.85 921.022C1157.4 917.859 1152.85 917.275 1149.68 919.725L1100.28 957.93C1100.03 958.12 1099.79 958.317 1099.54 958.507L1098.3 959.462C1098.3 959.462 1098.27 959.516 1098.24 959.531C1113.09 928.804 1131.76 892.51 1142.93 871.045C1152.78 870.522 1174.91 867.26 1188.25 849.071C1205.79 825.164 1210.36 809.493 1198.62 801.013C1186.87 792.526 1166.96 795.393 1166.96 795.393C1166.96 795.393 1166.56 794.885 1165.85 794.149C1157.16 810.897 1139.19 837.899 1128.42 853.395C1138.45 837.125 1155.59 809.387 1163.44 791.972C1158.96 788.4 1150.68 784.433 1141.49 793.186C1127.79 806.239 1120.93 818.967 1121.91 843.451C1122.36 854.707 1124.74 863.581 1127.18 869.922C1115.64 892.192 1098.3 926.013 1084.42 954.805C1081.85 960.153 1079.53 964.969 1077.44 969.361C1077.78 964.211 1077.98 958.878 1077.98 953.311C1077.98 952.363 1077.98 951.415 1077.96 950.451C1077.32 894.338 1069.98 838.293 1065.88 811.094C1076.8 808.56 1084.52 801.066 1086.68 798.753C1080.05 795.423 1068.53 783.871 1067.27 777.705C1064.05 778.221 1054.54 779.692 1049.94 779.95C1045.45 780.2 1040.89 779.586 1036.04 779.078C1035.08 784.873 1028.09 797.426 1022.82 802.106C1032.94 808.022 1040.83 810.836 1051.31 811.663C1052.58 819.983 1054.2 831.345 1055.85 844.847C1059.39 873.783 1063.04 912.345 1063.47 950.618C1063.47 951.521 1063.48 952.424 1063.48 953.311C1063.48 984.159 1057.54 1007.68 1050.75 1024.59C1048.37 1028.14 1046.07 1031.61 1043.85 1034.95C1045.45 1024.21 1046.39 1013.16 1046.39 1001.92C1046.39 990.811 1045.55 979.562 1043.72 968.382C1042.51 960.972 1040.59 953.971 1038.32 947.334C1039.06 946.56 1039.67 945.635 1040.01 944.543L1050.82 910.835C1052.04 907.028 1049.94 902.947 1046.13 901.726C1042.32 900.505 1038.24 902.606 1037.02 906.413L1030.12 927.932C1028.17 924.102 1026.16 920.529 1024.12 917.161C1020.45 904.767 1019.35 892.814 1019.35 883.219C1019.35 870.81 1021.14 862.391 1021.18 862.216C1022.04 858.31 1019.57 854.449 1015.67 853.584C1011.77 852.72 1007.9 855.185 1007.04 859.091C1006.96 859.463 1004.87 868.982 1004.87 883.211C1004.87 883.317 1004.87 883.439 1004.87 883.545L986.64 852.872C984.592 849.428 980.147 848.298 976.711 850.346C973.275 852.394 972.137 856.838 974.185 860.274L986.283 880.64L959.106 873.685C955.23 872.691 951.286 875.035 950.293 878.911C949.299 882.786 951.643 886.731 955.519 887.724L990.47 896.667C990.614 896.834 990.735 897.016 990.895 897.175L990.94 897.221L991.168 897.456C991.38 897.676 991.706 898.009 992.131 898.464C992.988 899.367 994.24 900.74 995.779 902.522C998.859 906.102 1003.07 911.359 1007.5 917.958C1008.6 919.596 1009.71 921.325 1010.83 923.123C1010.96 923.525 1011.08 923.927 1011.21 924.329C1005.44 923.753 996.826 921.743 985.593 915.644C982.081 913.733 977.682 915.03 975.77 918.549C973.859 922.061 975.156 926.46 978.675 928.379C994.74 937.132 1007.39 939.059 1015.11 939.051C1016.74 939.051 1018.12 938.968 1019.3 938.847C1023.78 948.419 1027.55 959.174 1029.43 970.718C1031.13 981.072 1031.91 991.547 1031.91 1001.92C1031.93 1027.16 1027.19 1051.78 1019.62 1072.49C1019.34 1069.44 1018.97 1066.26 1018.37 1062.81C1017.42 1057.26 1015.98 1051.17 1013.86 1044.5L1013.77 1043.97C1013.66 1043.35 1013.51 1042.45 1013.33 1041.29C1012.96 1038.98 1012.47 1035.67 1011.97 1031.75C1010.99 1023.9 1010 1013.55 1010.01 1003.82C1010.01 997.781 1010.4 991.987 1011.29 987.337C1012.05 983.408 1009.47 979.608 1005.54 978.857C1001.61 978.099 997.812 980.677 997.061 984.606C996.28 988.702 995.863 993.071 995.666 997.531C990.948 984.796 989.226 978.796 989.12 978.425V978.409C988.043 974.556 984.053 972.296 980.192 973.366C976.339 974.435 974.079 978.432 975.148 982.285C975.209 982.513 977.022 988.968 982.255 1003.05C972.562 999.063 964.431 998.646 963.93 998.601C959.933 998.388 956.527 1001.46 956.315 1005.46C956.103 1009.45 959.159 1012.85 963.149 1013.07H963.217L963.619 1013.1C963.998 1013.14 964.583 1013.2 965.341 1013.32C966.85 1013.54 969.035 1013.94 971.53 1014.64C976.536 1016.03 982.68 1018.66 987.428 1023.11C989.689 1025.22 991.646 1027.73 993.208 1030.81C993.701 1032 994.194 1033.2 994.71 1034.44L976.68 1028.36C972.888 1027.07 968.777 1029.11 967.495 1032.91C966.213 1036.7 968.254 1040.81 972.046 1042.09L1000.97 1051.85C1002.39 1056.72 1003.39 1061.17 1004.1 1065.26C1005.53 1073.55 1005.75 1080.39 1005.75 1086.55C1005.75 1089.38 1005.7 1092.07 1005.7 1094.7C1005.7 1096.88 1005.78 1099.03 1005.92 1101.17C1002.38 1107 999.01 1111.62 995.977 1115.29L990.508 1114.5L980.268 1070.51C978.797 1064.2 973.298 1059.61 966.835 1059.32C959.485 1059 948.669 1058.54 935.259 1058.01L873.442 701.15L925.171 674.861V601.318L864.727 601.477V502.099L887.186 501.788V496.706L772.252 419.029C774.891 415.07 776.446 410.314 776.446 405.164C776.446 393.741 768.861 384.002 758.462 380.74V315.844L743.983 315.646V380.543C733.584 383.516 725.999 393.051 725.999 404.474C725.999 410.215 727.933 415.517 731.156 419.803L621.281 496.881V505.452L644.059 505.141V602.046L588.81 602.19L589.288 609.775L593.301 673.541L648.132 702.91L598.625 1055.12C587.961 1055.74 578.176 1056.48 569.529 1057.38C563.188 1058.04 558.137 1062.84 557.136 1069.15L550.15 1113.06L537.491 1115.98C534.313 1112.22 530.74 1107.37 526.978 1101.18C527.122 1099.03 527.198 1096.89 527.198 1094.71C527.198 1092.08 527.145 1089.38 527.145 1086.56C527.145 1080.4 527.372 1073.56 528.798 1065.26C529.504 1061.18 530.505 1056.73 531.923 1051.86L560.852 1042.1C564.645 1040.82 566.677 1036.71 565.403 1032.91C564.121 1029.12 560.01 1027.09 556.218 1028.36L538.188 1034.45C538.704 1033.2 539.197 1032.01 539.69 1030.81C541.245 1027.73 543.21 1025.22 545.47 1023.12C550.218 1018.67 556.362 1016.04 561.368 1014.64C563.863 1013.94 566.04 1013.54 567.557 1013.32C568.316 1013.22 568.9 1013.15 569.279 1013.11L569.681 1013.08H569.749C573.731 1012.86 576.788 1009.45 576.583 1005.46C576.371 1001.47 572.965 998.403 568.968 998.608C568.475 998.654 560.344 999.071 550.643 1003.05C555.876 988.975 557.682 982.521 557.75 982.293C558.819 978.44 556.567 974.443 552.706 973.373C548.853 972.304 544.856 974.556 543.786 978.417V978.432C543.68 978.804 541.958 984.804 537.24 997.539C537.043 993.071 536.634 988.71 535.845 984.614C535.086 980.685 531.294 978.114 527.365 978.865C523.436 979.623 520.864 983.416 521.615 987.345C522.518 991.994 522.905 997.789 522.897 1003.83C522.897 1013.55 521.919 1023.9 520.933 1031.75C520.44 1035.68 519.947 1038.99 519.575 1041.3C519.393 1042.45 519.241 1043.36 519.135 1043.97L519.044 1044.5C516.935 1051.18 515.487 1057.27 514.531 1062.81C513.939 1066.27 513.568 1069.45 513.287 1072.5C505.717 1051.79 500.977 1027.17 500.992 1001.93C500.992 991.554 501.781 981.079 503.472 970.726C505.353 959.182 509.131 948.434 513.606 938.854C514.781 938.976 516.169 939.059 517.8 939.059C525.514 939.074 538.166 937.14 554.231 928.387C557.742 926.476 559.047 922.076 557.136 918.557C555.224 915.045 550.825 913.74 547.313 915.652C536.08 921.75 527.463 923.753 521.691 924.337C521.82 923.935 521.949 923.533 522.078 923.131C523.193 921.325 524.308 919.604 525.408 917.965C529.83 911.366 534.047 906.102 537.127 902.53C538.666 900.74 539.918 899.375 540.775 898.472C541.2 898.017 541.526 897.683 541.738 897.463L541.966 897.228L542.011 897.183C542.171 897.023 542.292 896.841 542.436 896.674L577.387 887.732C581.263 886.738 583.599 882.794 582.613 878.918C581.62 875.042 577.676 872.706 573.8 873.692L546.623 880.648L558.721 860.282C560.769 856.838 559.631 852.394 556.195 850.353C552.751 848.305 548.307 849.443 546.266 852.879L528.04 883.552C528.04 883.446 528.04 883.325 528.04 883.219C528.04 868.982 525.946 859.47 525.871 859.099C525.006 855.192 521.138 852.727 517.231 853.592C513.325 854.457 510.86 858.317 511.725 862.224C511.763 862.398 513.56 870.817 513.553 883.226C513.553 892.821 512.453 904.775 508.782 917.169C506.749 920.537 504.724 924.109 502.782 927.939L495.887 906.421C494.666 902.613 490.585 900.512 486.778 901.734C482.97 902.955 480.869 907.035 482.09 910.843L492.891 944.55C493.24 945.643 493.847 946.576 494.59 947.342C492.315 953.979 490.403 960.979 489.182 968.39C487.354 979.57 486.512 990.818 486.512 1001.93C486.512 1013.17 487.46 1024.22 489.053 1034.96C486.846 1031.63 484.54 1028.16 482.159 1024.6C475.37 1007.69 469.431 984.167 469.424 953.319C469.424 952.424 469.423 951.529 469.439 950.626C469.863 912.352 473.512 873.791 477.054 844.854C478.707 831.353 480.331 819.991 481.597 811.67C492.072 810.843 499.96 808.029 510.086 802.113C504.815 797.433 497.821 784.88 496.866 779.085C492.027 779.586 487.453 780.208 482.963 779.958C478.366 779.7 468.855 778.228 465.631 777.712C464.38 783.871 452.858 795.423 446.221 798.761C448.391 801.082 456.097 808.576 467.027 811.101C462.931 838.301 455.581 894.346 454.944 950.459C454.936 951.415 454.929 952.37 454.929 953.319C454.929 958.886 455.126 964.218 455.467 969.368C453.366 964.977 451.053 960.16 448.482 954.813C434.601 926.02 417.27 892.199 405.725 869.93C408.168 863.589 410.549 854.715 410.997 843.459C411.975 818.982 405.126 806.255 391.413 793.193C382.227 784.448 373.944 788.415 369.462 791.98C377.32 809.395 394.454 837.133 404.481 853.402C393.718 837.906 375.742 810.897 367.057 794.157C366.352 794.892 365.95 795.401 365.95 795.401C365.95 795.401 346.04 792.533 334.291 801.021C322.541 809.508 327.108 825.171 344.652 849.079C357.993 867.26 380.126 870.529 389.979 871.053C401.144 892.518 419.818 928.812 434.669 959.538C434.647 959.516 434.631 959.485 434.601 959.47L433.365 958.514C433.114 958.325 432.872 958.127 432.621 957.938L383.221 919.733C380.058 917.283 375.507 917.867 373.057 921.03C370.607 924.193 371.191 928.743 374.354 931.193L389.835 943.162C381.765 942.032 373.838 941.501 366.784 941.501C360.891 941.501 355.634 941.843 351.258 942.533C349.058 942.882 347.086 943.307 345.251 943.913C344.325 944.217 343.43 944.566 342.52 945.028C341.61 945.499 340.677 946.06 339.699 946.97C336.778 949.708 336.634 954.289 339.372 957.21C341.959 959.963 346.168 960.221 349.089 957.938C349.149 957.9 349.809 957.627 350.81 957.384C352.32 957.005 354.603 956.633 357.341 956.383C360.079 956.133 363.288 955.996 366.792 955.996C377.403 955.989 390.669 957.301 402.388 960.327C402.699 960.403 402.987 960.502 403.291 960.577C399.551 961.215 395.804 961.958 392.262 962.997C389.562 963.793 386.975 964.719 384.563 965.902C382.151 967.093 379.876 968.511 377.881 970.582C375.12 973.479 375.226 978.061 378.116 980.829C381.014 983.59 385.595 983.484 388.356 980.594C388.629 980.291 389.524 979.6 390.927 978.925C393.385 977.704 397.261 976.521 401.516 975.618C407.925 974.245 415.222 973.434 420.842 972.986C423.489 972.774 425.75 972.645 427.411 972.562C427.782 972.948 428.192 973.335 428.51 973.73C432.895 979.024 439.509 988.073 446.805 998.479C454.003 1008.76 461.899 1020.39 469.272 1031.4C470.478 1034.32 471.699 1037.07 472.928 1039.64C474.172 1042.24 475.423 1044.63 476.652 1046.87C474.93 1045.99 473.155 1045.16 471.327 1044.36C470.887 1042.67 469.879 1041.16 468.377 1040.15L423.436 1010.05C420.114 1007.82 415.608 1008.71 413.386 1012.03C411.164 1015.36 412.051 1019.86 415.373 1022.08L436.907 1036.51C435.807 1036.47 434.7 1036.42 433.638 1036.42C409.798 1036.45 394.386 1045.45 393.696 1045.82C390.244 1047.85 389.092 1052.29 391.117 1055.75C393.142 1059.19 397.564 1060.34 401.007 1058.33C401.182 1058.22 414.183 1050.88 433.63 1050.91C435.458 1050.91 437.37 1051 439.311 1051.13L416.033 1063.37C412.491 1065.23 411.126 1069.61 412.992 1073.15C414.85 1076.7 419.234 1078.06 422.776 1076.19L461.346 1055.92C472.708 1060.19 482.477 1066.8 489.728 1072.94C494.249 1076.76 497.799 1080.34 500.188 1082.95C501.379 1084.24 502.289 1085.3 502.881 1086.01C503.017 1086.17 503.078 1086.25 503.176 1086.37C504.709 1089.98 506.317 1093.47 508.008 1096.82C509.715 1100.2 511.421 1103.27 513.12 1106.18C513.181 1106.29 513.249 1106.4 513.31 1106.51C516.245 1111.52 519.135 1115.83 521.904 1119.56L445.789 1137.09L450.878 1150.92L1095.92 1144.46V1129.68L1012.41 1117.64C1014.76 1114.36 1017.17 1110.7 1019.63 1106.51C1019.69 1106.4 1019.76 1106.29 1019.82 1106.18C1021.52 1103.27 1023.22 1100.19 1024.93 1096.82C1026.62 1093.47 1028.23 1089.98 1029.76 1086.37C1029.87 1086.24 1029.92 1086.17 1030.06 1086.01C1030.65 1085.3 1031.55 1084.25 1032.75 1082.95C1035.14 1080.34 1038.69 1076.76 1043.21 1072.94C1050.46 1066.8 1060.23 1060.19 1071.59 1055.92L1110.16 1076.19C1113.7 1078.05 1118.09 1076.7 1119.94 1073.15C1121.8 1069.61 1120.45 1065.23 1116.9 1063.37L1093.62 1051.13C1095.57 1051 1097.47 1050.91 1099.31 1050.91C1118.75 1050.88 1131.75 1058.21 1131.93 1058.33C1135.37 1060.33 1139.79 1059.18 1141.82 1055.74C1143.84 1052.29 1142.69 1047.85 1139.24 1045.82C1138.56 1045.44 1123.14 1036.44 1099.3 1036.41C1098.24 1036.41 1097.12 1036.46 1096.03 1036.5L1117.56 1022.08C1120.89 1019.85 1121.77 1015.35 1119.55 1012.03C1117.32 1008.7 1112.82 1007.81 1109.5 1010.04L1064.56 1040.14C1063.06 1041.15 1062.05 1042.66 1061.61 1044.35C1059.79 1045.16 1058.01 1045.98 1056.28 1046.86C1057.51 1044.63 1058.76 1042.22 1060.01 1039.63C1061.24 1037.06 1062.47 1034.31 1063.66 1031.39C1071.04 1020.38 1078.93 1008.74 1086.13 998.472C1093.43 988.058 1100.04 979.016 1104.43 973.722C1104.74 973.328 1105.15 972.948 1105.53 972.554C1107.19 972.637 1109.45 972.766 1112.09 972.979C1117.71 973.426 1125.02 974.238 1131.42 975.611C1135.68 976.506 1139.55 977.697 1142.01 978.918C1143.41 979.593 1144.31 980.283 1144.58 980.586C1147.34 983.484 1151.93 983.59 1154.82 980.822C1157.72 978.061 1157.82 973.472 1155.06 970.574H1155.03ZM784.441 503.191L754.169 538.317L722.912 504.041L784.441 503.191ZM718.937 601.53L754.609 560.139L791.085 600.142V601.651L718.937 601.841V601.537V601.53ZM718.937 579.192V521.023L744.711 549.285L718.937 579.192ZM764.067 549.164L791.085 517.815V578.79L764.067 549.164ZM633.675 659.19V616.548L648.602 616.51V659.251L633.675 659.19ZM619.195 659.13L606.87 659.084L604.2 616.624L619.203 616.586V659.13H619.195ZM910.684 660.298L895.127 660.237V616.199L880.648 616.002V660.184L864.719 660.123V615.964L910.684 615.843V660.305V660.298ZM805.565 601.613V527.418L842.996 571.145V601.522L805.565 601.621V601.613ZM842.996 549.012L805.565 505.285V502.896L842.996 502.38V549.012ZM703.737 504.299L665.759 550.301V504.822L703.737 504.299ZM665.752 573.215L704.45 526.34V601.879L665.752 601.977V573.215ZM620.728 1054.06L661.443 764.355C670.363 741.312 694.172 695.257 743.967 687.733C791.912 680.497 831.877 690.418 850.657 696.614L913.111 1057.16C836.397 1054.36 707.962 1050.78 620.72 1054.06H620.728Z" fill="#1E1E47"/>
<path d="M1151.08 755.656C1151.68 743.171 1144.31 737.854 1138.73 729.89C1133.16 721.918 1121 716.737 1121 716.737C1121 716.737 1120.91 716.616 1120.77 716.426C1110.86 731.3 1081.96 755.496 1066.87 765.668C1066.42 765.979 1065.52 767.306 1064.01 767.845C1062.49 768.383 1060.7 769.172 1060.7 770.545C1060.7 772.297 1063.85 774.656 1066.12 776.127C1067.4 776.954 1068.22 777.523 1067.96 777.568C1072.46 781.952 1078.14 789.105 1086.79 797.79C1090.96 797.653 1104.95 796.811 1115.02 791.441C1126.98 785.062 1150.48 768.133 1151.08 755.648V755.656Z" fill="#1E1E47"/>
<path d="M1087.32 798.025L1086.97 797.987C1087.04 798.056 1087.11 798.124 1087.18 798.192C1087.27 798.086 1087.32 798.025 1087.32 798.025Z" fill="#1E1E47"/>
<path d="M1064.77 765.888C1079.22 751.514 1107.13 728.767 1120.5 716.085C1119.08 714.219 1114.47 708.356 1108.84 703.388C1102.07 697.411 1090.91 701.196 1087.32 701.196C1086.59 701.196 1086.12 701.052 1085.72 700.771C1080.7 714.409 1065.89 741.904 1058.81 756.52C1061.9 758.584 1063.25 763.878 1064.77 765.895V765.888Z" fill="#1E1E47"/>
<path d="M1075.77 689.045C1065.41 680.08 1055.84 685.457 1053.44 689.045C1051.04 692.633 1034.13 692.633 1023.77 693.027C1014.13 693.399 1006.73 716.009 1005.75 719.142C1014.2 730.17 1024.1 744.908 1038.63 761.989C1040.5 761.648 1043.36 761.231 1044.77 761.17C1047.2 761.064 1052.25 754.639 1057.2 755.792C1057.59 755.883 1057.91 756.096 1058.25 756.27C1066.93 731.604 1076.81 715.327 1085.32 700.415C1084.08 699.004 1083.27 695.553 1075.75 689.045H1075.77Z" fill="#1E1E47"/>
<path d="M970.977 761.17C971.841 765.486 975.391 769.87 980.298 774.178C980.989 774.163 982.179 774.223 983.992 774.398C990.621 774.807 1018.31 776.173 1025.03 777.273C1029.05 776.848 1037.15 776.006 1038.57 775.93C1040.46 775.824 1043.52 767.503 1043.52 767.503C1043.52 767.503 1037.13 762.285 1038.21 762.08C1027.67 751.947 1011.08 732.688 1004.59 719.347C1000.86 718.702 987.785 716.957 981.338 722.729C973.768 729.503 968.39 748.23 970.977 761.177V761.17Z" fill="#1E1E47"/>
<path d="M1000.61 778.661C997.296 778.585 985.888 776.401 981.383 775.104C991.213 783.386 1005.83 791.366 1016.21 798.018C1018.25 799.33 1020.18 800.528 1022.04 801.628C1026.51 793.831 1031.24 785.176 1035.74 779.017C1034.66 778.904 1033.57 778.79 1032.46 778.706C1028.2 778.38 1025.27 777.94 1023.82 777.69C1018.38 779.252 1004.92 778.888 1000.62 778.653L1000.61 778.661Z" fill="#1E1E47"/>
<path d="M428.935 1280.3L466.662 1214.24L516.48 1242.7L509.1 1255.62L473.716 1235.41L466.063 1248.81L497.199 1266.6L489.819 1279.52L458.683 1261.74L450.757 1275.6L486.618 1296.09L479.231 1309.01L428.935 1280.29V1280.3Z" fill="#1E1E47"/>
<path d="M540.039 1336.17C529.269 1332.08 519.825 1324.19 514.182 1313.33L527.63 1305.77C532.022 1313.48 537.453 1319.38 545.584 1322.47C551.985 1324.9 556.809 1323.83 558.395 1319.66L558.47 1319.46C559.972 1315.5 558.311 1312.53 547.579 1304.97C534.646 1295.87 526.902 1288.4 532.265 1274.27L532.34 1274.07C537.24 1261.17 550.848 1256.57 565.373 1262.09C575.741 1266.02 583.341 1272.63 588.355 1281.15L575.749 1289.85C571.107 1283.1 565.911 1278.1 559.919 1275.82C553.927 1273.55 549.733 1275.09 548.42 1278.54L548.345 1278.75C546.57 1283.42 549.035 1286.11 560.139 1293.92C573.14 1303.16 579.299 1311.43 574.588 1323.82L574.513 1324.02C569.15 1338.15 555.376 1341.99 540.032 1336.15L540.039 1336.17Z" fill="#1E1E47"/>
<path d="M648.86 1303.36L636.155 1362.64L619.787 1359.13L632.499 1299.85L609.866 1295L613.097 1279.91L674.717 1293.12L671.486 1308.21L648.86 1303.36V1303.36Z" fill="#1E1E47"/>
<path d="M680.216 1369.81L682.135 1352.54L699.633 1354.48L697.714 1371.76L680.216 1369.81Z" fill="#1E1E47"/>
<path d="M794.21 1321.7L781.665 1313.35C788.203 1302.5 794.946 1296.32 808.477 1295.07C824.603 1293.6 835.411 1302 836.708 1316.17C837.869 1328.84 831.96 1335.82 819.483 1347.43L808.015 1358.08L841.024 1355.06L842.344 1369.46L786.276 1374.59L785.07 1361.38L808.401 1338.4C817.101 1329.74 820.408 1325.3 819.832 1319.02C819.248 1312.63 814.712 1309.55 808.758 1310.1C802.91 1310.63 799.208 1314.25 794.21 1321.69V1321.7Z" fill="#1E1E47"/>
<path d="M911.602 1356.56C891.919 1361.62 874.732 1348.42 869.217 1326.95C863.696 1305.48 872.555 1285.36 892.238 1280.31C911.92 1275.25 929.108 1288.46 934.622 1309.92C940.144 1331.4 931.285 1351.5 911.602 1356.56ZM895.787 1294.99C886.003 1297.51 882.309 1308.88 885.79 1322.46C889.279 1336.04 898.268 1344.39 908.06 1341.87C917.844 1339.36 921.515 1327.87 918.057 1314.4C914.598 1300.93 905.579 1292.47 895.787 1294.99Z" fill="#1E1E47"/>
<path d="M964.947 1256.76L975.497 1252.4L1004.76 1323.21L989.491 1329.52L966.699 1274.38L955.693 1282.46L947.251 1271.13L964.947 1256.76Z" fill="#1E1E47"/>
<path d="M1003.86 1240.05L1051.33 1212.75L1057.61 1223.68L1059.67 1295.69L1043.28 1305.12L1042.05 1234.76L1011.06 1252.57L1003.85 1240.04L1003.86 1240.05Z" fill="#1E1E47"/>
<path d="M342.482 322.306L396.426 376.994L381.332 391.883L327.381 337.196L306.507 357.789L292.778 343.87L349.62 287.795L363.348 301.713L342.475 322.306H342.482Z" fill="#1E1E47"/>
<path d="M480.407 314.213C455.187 329.975 425.348 322.488 410.83 299.256L410.686 299.021C396.168 275.788 402.6 245.304 427.82 229.543C453.04 213.781 482.879 221.267 497.397 244.5L497.541 244.735C512.066 267.968 505.626 298.452 480.407 314.213ZM478.738 256.477C469.985 242.467 452.411 237.211 437.939 246.26C423.459 255.309 420.569 273.027 429.33 287.036L429.474 287.271C438.227 301.281 455.801 306.537 470.281 297.488C484.76 288.44 487.643 270.729 478.89 256.712L478.738 256.477Z" fill="#1E1E47"/>
<path d="M627.258 248.74L608.539 188.667L594.894 236.043L594.37 236.202L556.612 205.278L575.211 264.957L555.361 271.146L526.69 179.133L548.512 172.337L584.821 203.708L596.881 157.266L618.703 150.47L647.374 242.482L627.266 248.748L627.258 248.74Z" fill="#1E1E47"/>
<path d="M721.319 235.77C706.763 236.817 691.707 232.797 679.435 223.331L690.85 207.463C700.013 213.978 709.403 217.854 720.393 217.066C729.048 216.444 734.016 212.636 733.614 207L733.591 206.727C733.204 201.372 729.715 198.862 713.347 195.904C693.634 192.354 680.747 187.901 679.382 168.818L679.359 168.545C678.1 151.107 691.275 138.562 710.912 137.151C724.922 136.142 737.179 139.677 747.494 146.799L737.657 163.516C728.722 158.222 720.09 155.256 711.989 155.84C703.889 156.424 699.899 160.436 700.233 165.109L700.248 165.382C700.711 171.7 704.973 173.46 721.895 176.524C741.76 180.195 753.251 186.407 754.457 203.162L754.48 203.435C755.853 222.519 742.071 234.283 721.342 235.778L721.319 235.77Z" fill="#1E1E47"/>
<path d="M851.901 241.178L857.354 202.889L818.656 197.382L813.203 235.671L792.223 232.683L805.807 137.302L826.795 140.291L821.417 178.033L860.115 183.54L865.493 145.797L886.473 148.786L872.888 244.166L851.901 241.178Z" fill="#1E1E47"/>
<path d="M911.845 255.134L945.43 164.821L965.295 172.209L938.43 244.455L983.454 261.202L976.733 279.262L911.837 255.127L911.845 255.134Z" fill="#1E1E47"/>
<path d="M1006.62 294.409L1057.7 212.689L1119.34 251.213L1109.34 267.209L1065.56 239.843L1055.2 256.424L1093.72 280.506L1083.73 296.502L1045.2 272.42L1034.48 289.585L1078.84 317.315L1068.84 333.312L1006.63 294.424L1006.62 294.409Z" fill="#1E1E47"/>
<path d="M1158.57 361.907L1131.78 389.418L1116.59 374.635L1143.09 347.42L1157.28 279.778L1175.03 297.064L1164.51 340.814L1208.26 329.429L1225.51 346.229L1158.57 361.915V361.907Z" fill="#1E1E47"/>
<path d="M758.477 37.5449C1156.67 37.5449 1479.41 360.329 1479.45 758.5C1479.41 1156.67 1156.67 1479.45 758.477 1479.45C360.284 1479.45 37.5454 1156.67 37.5454 758.5C37.5454 360.329 360.322 37.5449 758.477 37.5449ZM758.477 1464.96C953.592 1464.96 1130.15 1385.88 1258.04 1258.03C1385.88 1130.18 1464.92 953.576 1464.96 758.492C1464.92 563.37 1385.88 386.8 1258.04 258.926C1130.15 131.082 953.592 52.0321 758.477 52.0321C563.363 52.0321 386.831 131.082 258.957 258.926C131.121 386.808 52.0326 563.377 52.0326 758.5C52.0326 953.622 131.113 1130.19 258.957 1258.04C386.839 1385.88 563.401 1464.97 758.477 1464.97M758.477 21.2449C658.955 21.2449 562.407 40.7381 471.509 79.1861C383.721 116.322 304.876 169.477 237.173 237.18C169.47 304.883 116.315 383.728 79.1866 471.516C40.7386 562.422 21.2454 658.97 21.2454 758.492C21.2454 858.014 40.7386 954.57 79.1866 1045.47C116.322 1133.26 169.478 1212.1 237.173 1279.8C304.876 1347.51 383.714 1400.66 471.509 1437.8C562.407 1476.25 658.963 1495.74 758.477 1495.74C857.991 1495.74 954.563 1476.25 1045.46 1437.8C1133.26 1400.66 1212.09 1347.51 1279.8 1279.8C1347.5 1212.1 1400.65 1133.26 1437.79 1045.47C1476.24 954.57 1495.74 858.014 1495.75 758.492C1495.74 658.963 1476.24 562.414 1437.79 471.509C1400.65 383.713 1347.5 304.868 1279.8 237.173C1212.09 169.469 1133.26 116.314 1045.46 79.1785C954.555 40.7306 857.999 21.2373 758.477 21.2373V21.2449ZM758.477 1448.66C665.312 1448.66 574.937 1430.41 489.865 1394.43C407.705 1359.67 333.888 1309.9 270.478 1246.51C207.091 1183.12 157.326 1109.31 122.565 1027.13C86.5819 942.062 68.3326 851.68 68.3326 758.507C68.3326 665.334 86.5819 574.937 122.565 489.857C157.319 407.689 207.084 333.873 270.478 270.463C333.881 207.076 407.69 157.318 489.857 122.564C574.922 86.589 665.296 68.3473 758.47 68.3473C942.806 68.3473 1116.13 140.131 1246.5 270.463C1376.82 400.825 1448.61 574.148 1448.64 758.507C1448.63 851.688 1430.37 942.07 1394.4 1027.13C1359.64 1109.32 1309.88 1183.13 1246.5 1246.51C1183.09 1309.91 1109.27 1359.67 1027.11 1394.43C942.04 1430.43 851.658 1448.67 758.47 1448.67L758.477 1448.66Z" fill="#1E1E47"/>
<path d="M336.452 1180.54C228.428 1072.5 161.635 923.343 161.627 758.5C161.627 660.958 185.019 568.938 226.486 487.658H208.282C167.998 569.34 145.327 661.269 145.327 758.5C145.327 927.796 213.978 1081.13 324.923 1192.07C328.662 1195.81 332.455 1199.49 336.285 1203.12H360.367C352.198 1195.8 344.211 1188.29 336.452 1180.54Z" fill="#1E1E47"/>
<path d="M1355.37 758.5C1355.33 923.344 1288.56 1072.5 1180.54 1180.54C1172.79 1188.29 1164.79 1195.8 1156.62 1203.12H1180.71C1184.54 1199.48 1188.33 1195.8 1192.07 1192.07C1303.01 1081.13 1371.64 927.796 1371.67 758.508C1371.65 661.277 1348.98 569.348 1308.7 487.666H1290.5C1331.96 568.938 1355.34 660.966 1355.37 758.508V758.5Z" fill="#1E1E47"/>
</svg>
